<?xml version="1.0" encoding="UTF-8" standalone="no"?>
<svg width="456" height="456" viewBox="0 0 456 456" version="1.1" xmlns="http://www.w3.org/2000/svg">
    <!-- QR Code inspired Pix symbol -->
    <g fill="#ffffff">
        <!-- Top-left QR pattern -->
        <rect x="120" y="120" width="60" height="60" rx="8"/>
        <rect x="132" y="132" width="36" height="36" rx="4" fill="#00BFA6"/>
        <rect x="140" y="140" width="20" height="20" rx="2" fill="#ffffff"/>
        
        <!-- Top-right QR pattern -->
        <rect x="276" y="120" width="60" height="60" rx="8"/>
        <rect x="288" y="132" width="36" height="36" rx="4" fill="#00BFA6"/>
        <rect x="296" y="140" width="20" height="20" rx="2" fill="#ffffff"/>
        
        <!-- Bottom-left QR pattern -->
        <rect x="120" y="276" width="60" height="60" rx="8"/>
        <rect x="132" y="288" width="36" height="36" rx="4" fill="#00BFA6"/>
        <rect x="140" y="296" width="20" height="20" rx="2" fill="#ffffff"/>
        
        <!-- Center Pix symbol - stylized P -->
        <path d="M 210 180 L 210 300 L 230 300 L 230 250 C 250 250 270 240 270 210 C 270 180 250 180 230 180 Z M 230 198 C 242 198 252 202 252 215 C 252 228 242 232 230 232 L 230 198 Z"/>
        
        <!-- Decorative dots -->
        <rect x="200" y="130" width="12" height="12" rx="2"/>
        <rect x="244" y="130" width="12" height="12" rx="2"/>
        <rect x="200" y="314" width="12" height="12" rx="2"/>
        <rect x="244" y="314" width="12" height="12" rx="2"/>
    </g>
</svg>
